<svg xmlns="http://www.w3.org/2000/svg" version="1.1" xmlns:xlink="http://www.w3.org/1999/xlink" xmlns:svgjs="http://svgjs.dev/svgjs" width="1000" height="1125" viewBox="0 0 1000 1125"><g transform="matrix(1,0,0,1,1.7053025658242404e-13,0)"><svg viewBox="0 0 320 360" data-background-color="#ffffff" preserveAspectRatio="xMidYMid meet" height="1125" width="1000" xmlns="http://www.w3.org/2000/svg" xmlns:xlink="http://www.w3.org/1999/xlink"><g id="tight-bounds" transform="matrix(1,0,0,1,0,0)"><svg viewBox="0 0 320 360" height="360" width="320"><g><svg></svg></g><g><svg viewBox="0 0 320 360" height="360" width="320"><g><path xmlns="http://www.w3.org/2000/svg" d="M20.961 227.22l3.726 4.658-1.863-6.056c-0.466-2.795-3.726 0.466-1.863 1.398M25.153 224.425c1.397 2.329 2.795 4.658 2.795 6.987 0 3.261 2.795 4.658 5.123 5.589-3.261-3.726-5.124-13.974-7.918-12.576M204.017 26.929c7.918 0 15.371-0.932 23.756 0.931 20.495 5.124 37.729 15.371 49.374 29.811l32.606 52.169c1.397 13.042 4.192 27.482 3.726 43.319 3.261 0 2.795-4.658 6.521-5.59-3.726 9.316-5.59 20.961-6.521 34.469-2.329-7.453 0-18.632 0.466-24.687-3.261 5.124-5.124 1.397-5.124-0.932 0.466-3.726-1.397-3.261-2.795-4.658-5.124-4.658-8.384-9.782-12.11-17.7 2.329-6.055 2.795-14.905-4.658-19.563-2.329-1.397-5.124-3.726-6.521-7.453-1.863-5.124-5.124-11.179-4.193-19.097 0.466-2.329-6.987 5.124-11.179 1.863-18.166-12.576-36.332-27.016-58.224-39.127-11.645 0-20.029-4.192-24.221-9.316-3.726-4.658-0.932-10.713 4.658-11.179 3.261 0 6.987-0.932 9.782 0.932 0.466-1.863 2.329-4.192 4.657-4.192M157.904 16.215l0.932 0.466c4.658 0.932 6.987 7.453 12.11 5.124 0 3.261 0.466 6.521-0.466 8.85-1.397 3.726-5.59 3.726-8.85 3.726-31.208-1.863-49.374 11.179-68.471 22.358-5.124 3.261-10.713 5.59-14.906 9.782-20.029 18.632-41.921 35.866-47.045 70.335l-4.192 38.195c-0.466 4.192-5.124 8.384-4.192 13.508l3.26 22.824c-3.261-3.261-5.124 0.932-4.192 2.795 0.466 1.397 2.329 6.055 5.124 1.863 3.726 6.987 7.453 20.495 12.576 26.55 15.837 18.632 36.332 35.4 53.101 52.169 4.192-0.932 7.453-0.932 8.384-3.727 1.397 2.795-1.397 5.59-3.726 6.056 7.453 4.658 15.837 8.85 27.016 9.781 14.44 0.932 27.948 3.261 40.524 6.522 6.521-1.863 13.042-2.795 20.029-3.261 2.329 0 3.726-3.726 6.521-4.658l0.466-4.658c2.795 4.192 2.329-1.397 0.466-4.192 3.261 2.795 4.192 5.124 5.589 6.987 0-1.397 3.726-6.521 3.727-0.466l0.931-6.055c1.397-0.932 1.863 5.124 3.261 0.931 1.397-4.192 4.192-0.932 6.987-2.329-0.932 1.863-0.466 5.59 2.794 3.261l3.727-3.261c2.329 5.59 6.055 3.261 7.918 2.329 20.495-13.042 40.99-28.413 60.553-43.784l-0.466 6.055 2.329-7.453c2.329 2.329 4.192 0.466 5.124-0.931 2.795-4.658 6.521-9.316 12.577-13.508-7.453 20.029-16.303 35.866-27.482 48.908l-4.658 5.59c0 3.261-0.932 7.453-4.658 7.918-1.863 0.466-5.59-0.932-8.384 1.863-1.397 1.863 3.261 5.59-0.466 2.795-3.261-2.329-6.521 0-10.248 0.932-2.795 0.932 1.863 3.726 2.795 5.589 0.932 1.863 1.863 3.726 1.398 6.056l-5.124-5.59c-6.055 3.261-9.782 9.316-14.906 13.974-2.329 1.863-1.397 5.124-1.397 7.918-3.261 0-6.987-0.932-8.85 0.932-1.397 1.863-0.932 4.658-0.932 7.453-4.658-0.466-5.124-7.453-9.315-6.056-4.192 0.932-8.85 1.397-12.577 3.727 2.795 5.59-4.658 2.329-3.726 3.26-6.987-4.192-13.042-7.453-20.495-4.658-15.837-5.124-35.4-2.795-49.84-0.931 0-2.329 0.466-4.658-0.466-5.124-0.932 2.329-3.726 1.397-3.26 1.397-8.85-6.055-17.7-9.782-27.016-14.905-8.384 0.932-16.303-3.261-18.632-5.59-6.521-6.055-13.974-2.795-20.029-4.192-13.042-3.261-17.7-16.769-19.098-26.084-0.932-4.658-4.658-6.521-6.055-6.056-6.055-19.563-15.371-37.263-22.824-55.429-1.863-4.658-1.397-9.316-1.397-14.44 2.329 0.932 4.658 0.466 4.192-2.794-2.329-15.371-7.918-27.016-13.974-38.195 3.261-15.837 3.726-34.469 11.179-48.443 6.521-12.576 18.632-19.098 27.016-29.811 2.795-3.726 2.795-8.85 5.59-12.11 9.316-9.316 18.632-19.098 28.879-27.482 4.658-3.726 10.247 0 17.234-1.397 2.329-8.384 11.645-15.837 20.495-13.508 3.726 0.932 11.179-8.85 13.508-9.782 3.726-1.397 1.863 3.726 1.863 6.987 8.85-6.987 20.961-10.713 32.14-14.906" fill="#77d4fc" fill-rule="nonzero" stroke="none" stroke-width="1" stroke-linecap="butt" stroke-linejoin="miter" stroke-miterlimit="10" stroke-dasharray="" stroke-dashoffset="0" font-family="none" font-weight="none" font-size="none" text-anchor="none" style="mix-blend-mode: normal" data-fill-palette-color="tertiary"></path></g><g transform="matrix(1,0,0,1,64,116.79066133742143)"><svg viewBox="0 0 192 126.41867732515715" height="126.41867732515715" width="192"><g><svg viewBox="0 0 192 126.41867732515715" height="126.41867732515715" width="192"><g><svg viewBox="0 0 192 126.41867732515715" height="126.41867732515715" width="192"><g transform="matrix(1,0,0,1,0,76.40978571086924)"><svg viewBox="0 0 192 50.008891614287904" height="50.008891614287904" width="192"><g id="textblocktransform"><svg viewBox="0 0 192 50.008891614287904" height="50.008891614287904" width="192" id="textblock"><g><svg viewBox="0 0 192 50.008891614287904" height="50.008891614287904" width="192"><g transform="matrix(1,0,0,1,0,0)"><svg width="192" viewBox="1.2699999809265137 -32.400001525878906 159.239990234375 41.480003356933594" height="50.008891614287904" data-palette-color="#77d4fc"><path d="M5.2-25.34L5.2-32.4 30.88-32.4 30.88-6.47 24.41 0 20.09 0 20.09-25.34 5.2-25.34ZM12.48-13.57L12.48-6.47 18.38-6.47 18.38 0 7.76 0 1.27-6.47 1.27-13.57 12.48-13.57ZM53.05-25.93L63.84-25.93 63.84 0 53.05 0 53.05-25.93ZM46.53-25.93L46.53-6.47 51.34-6.47 51.34-3.25 48.22 0 42.23 0 35.74-6.47 35.74-25.93 46.53-25.93ZM86.03-13.16L86.03-19.46 81.44-19.46 81.44-22.29 85.05-25.93 91.6-25.93 96.85-19.87 96.85-13.16 86.03-13.16ZM79.71 0L68.92 0 68.92-25.93 79.71-25.93 79.71 0ZM117.23 3.42L117.23-19.46 112.44-19.46 112.44-25.93 121.55-25.93 128.02-19.46 128.02 2.56 121.55 9.08 107.32 9.08 104.07 5.81 104.07 3.42 117.23 3.42ZM110.73-6.05L115.52-6.05 115.52-3.2 112.3 0 106.41 0 99.94-6.47 99.94-19.46 106.41-25.93 110.73-25.93 110.73-6.05ZM160.51 0L149.97 0 149.97-19.46 134.61-19.46 134.61-22.68 137.86-25.93 154.04-25.93 160.51-19.46 160.51 0ZM136.78-15.09L148.26-15.09 148.26-10.6 142.69-10.6 142.69-6.05 148.26-6.05 148.26-3.2 145.03 0 136.78 0 132.44-4.27 132.44-10.77 136.78-15.09Z" opacity="1" transform="matrix(1,0,0,1,0,0)" fill="#77d4fc" class="wordmark-text-0" data-fill-palette-color="primary" id="text-0"></path></svg></g></svg></g></svg></g></svg></g><g transform="matrix(1,0,0,1,61.443855894527054,0)"><svg viewBox="0 0 69.11228821094589 69.11228821094589" height="69.11228821094589" width="69.11228821094589"><g><svg xmlns="http://www.w3.org/2000/svg" xmlns:xlink="http://www.w3.org/1999/xlink" version="1.1" x="0" y="0" viewBox="3 3.0070018768310547 58 58" style="enable-background:new 0 0 64 64;" xml:space="preserve" height="69.11228821094589" width="69.11228821094589" class="icon-icon-0" data-fill-palette-color="accent" id="icon-0"></svg></g></svg></g><g></g></svg></g></svg></g></svg></g></svg></g><defs></defs><mask id="943c4b27-a422-4236-87f5-d7b32a0d7307"><g id="SvgjsG1025"><svg viewBox="0 0 320 360" height="360" width="320"><g><svg></svg></g><g><svg viewBox="0 0 320 360" height="360" width="320"><g></g><g transform="matrix(1,0,0,1,64,116.79066133742143)"><svg viewBox="0 0 192 126.41867732515715" height="126.41867732515715" width="192"><g><svg viewBox="0 0 192 126.41867732515715" height="126.41867732515715" width="192"><g><svg viewBox="0 0 192 126.41867732515715" height="126.41867732515715" width="192"><g transform="matrix(1,0,0,1,0,76.40978571086924)"><svg viewBox="0 0 192 50.008891614287904" height="50.008891614287904" width="192"><g id="SvgjsG1024"><svg viewBox="0 0 192 50.008891614287904" height="50.008891614287904" width="192" id="SvgjsSvg1023"><g><svg viewBox="0 0 192 50.008891614287904" height="50.008891614287904" width="192"><g transform="matrix(1,0,0,1,0,0)"><svg width="192" viewBox="1.2699999809265137 -32.400001525878906 159.239990234375 41.480003356933594" height="50.008891614287904" data-palette-color="#77d4fc"></svg></g></svg></g></svg></g></svg></g><g transform="matrix(1,0,0,1,61.443855894527054,0)"><svg viewBox="0 0 69.11228821094589 69.11228821094589" height="69.11228821094589" width="69.11228821094589"><g><svg xmlns="http://www.w3.org/2000/svg" xmlns:xlink="http://www.w3.org/1999/xlink" version="1.1" x="0" y="0" viewBox="3 3.0070018768310547 58 58" style="enable-background:new 0 0 64 64;" xml:space="preserve" height="69.11228821094589" width="69.11228821094589" class="icon-icon-0" data-fill-palette-color="accent" id="SvgjsSvg1021"><g fill="white"><path d="M33 34.79v14.218h2v-8.603c0-2.444 1.302-4.745 3.398-6.003L45 30.441v-5.985l-2.037-1.811C42.603 28.396 38.57 33.312 33 34.79z" fill="white"></path><path d="M32 32.986c4.151-0.907 7.377-4.04 8.532-7.979H23.468C24.623 28.946 27.849 32.079 32 32.986z" fill="white"></path><path d="M32 15.007c3.471 0 6.81 1.27 9.401 3.575L45 21.781v-2.172c0-7.645-4.877-14.297-12.152-16.602h-1.695C23.877 5.312 19 11.964 19 19.609v2.172l3.599-3.199C25.19 16.277 28.529 15.007 32 15.007z" fill="white"></path><path d="M37 40.405v8.603h6v-8h2v8h6V37.332c0-2.155-1.374-4.062-3.419-4.743l-1.461-0.487-6.692 4.015C37.931 37.015 37 38.659 37 40.405z" fill="white"></path><path d="M24 57.007h16c0.552 0 1-0.448 1-1v-1H23v1C23 56.559 23.448 57.007 24 57.007z" fill="white"></path><path d="M32 17.007c-2.979 0-5.847 1.09-8.073 3.069L23 20.9v0.909c0 0.404 0.028 0.803 0.07 1.198h17.86c0.042-0.395 0.07-0.794 0.07-1.198V20.9l-0.927-0.824C37.847 18.097 34.979 17.007 32 17.007z" fill="white"></path><path d="M55 19.007h-8.024C46.982 19.208 47 19.407 47 19.609v10.678l1.214 0.405C51.076 31.645 53 34.314 53 37.332v13.676H11V37.332c0-3.018 1.924-5.687 4.786-6.64L17 30.287V19.609c0-0.202 0.018-0.401 0.024-0.602H9v34h46V19.007z" fill="white"></path><path d="M43 55.007v1c0 1.654-1.346 3-3 3H24c-1.654 0-3-1.346-3-3v-1H3v3c0 1.654 1.346 3 3 3h52c1.654 0 3-1.346 3-3v-3H43zM9 59.007H7v-2h2V59.007zM13 59.007h-2v-2h2V59.007zM17 59.007h-2v-2h2V59.007z" fill="white"></path><path d="M29 40.405v8.603h2V34.79c-5.57-1.477-9.603-6.394-9.963-12.144L19 24.456v5.985l6.602 3.961C27.698 35.66 29 37.96 29 40.405z" fill="white"></path><path d="M13 37.332v11.676h6v-8h2v8h6v-8.603c0-1.746-0.931-3.39-2.428-4.288l-6.692-4.015-1.461 0.487C14.374 33.27 13 35.176 13 37.332z" fill="white"></path><path d="M55 17.007c1.103 0 2 0.897 2 2v34h2v-35c0-1.654-1.346-3-3-3h-9.546c0.157 0.654 0.271 1.324 0.36 2H55z" fill="white"></path><path d="M7 19.007c0-1.103 0.897-2 2-2h8.186c0.09-0.676 0.203-1.346 0.36-2H8c-1.654 0-3 1.346-3 3v35h2V19.007z" fill="white"></path></g></svg></g></svg></g><g></g></svg></g></svg></g></svg></g></svg></g><defs></defs></svg></g></mask><linearGradient x1="0" x2="1" y1="0.548" y2="0.55" id="a6846f44-d8c6-4354-8752-b2cc6985e959"><stop stop-color="#ff6cab" offset="0"></stop><stop stop-color="#7366ff" offset="1"></stop></linearGradient><rect width="320" height="360" fill="url(#a6846f44-d8c6-4354-8752-b2cc6985e959)" mask="url(#943c4b27-a422-4236-87f5-d7b32a0d7307)" data-fill-palette-color="accent"></rect></svg><rect width="320" height="360" fill="none" stroke="none" visibility="hidden"></rect></g></svg></g></svg>